<svg width="58" height="58" viewBox="0 0 58 58" fill="none" xmlns="http://www.w3.org/2000/svg">
<circle cx="29" cy="29" r="29" fill="#1A0C36"/>
<path d="M18.6344 32.863C16.5445 31.9014 15.6168 29.4003 16.5785 27.3071L19.3786 21.221C20.3402 19.1278 22.8379 18.2001 24.9311 19.1618L30.2594 21.6118L23.9627 35.3097L18.6344 32.863ZM39.3902 25.8085C41.4834 26.7702 42.4111 29.2712 41.4495 31.3645L38.6494 37.4505C37.6877 39.5438 35.1867 40.4715 33.0968 39.5064L27.7686 37.0597L34.0653 23.3619L39.3902 25.8085ZM32.0094 17.8059L26.6812 15.3593C22.4947 13.4359 17.496 15.2845 15.5727 19.471L12.776 25.5571C10.8323 29.7809 12.6639 34.7252 16.8877 36.6656L22.2126 39.1156L20.466 42.9215L24.2719 44.6682L26.0185 40.8657L31.3468 43.3123C35.5333 45.2357 40.532 43.3871 42.4553 39.2006L45.252 33.1111C47.1583 28.9654 45.2893 23.9124 41.1402 22.006L35.8119 19.556L37.562 15.75L33.7561 14L32.0094 17.8059Z" fill="#F4042E"/>
</svg>
