<svg width="375" height="75" viewBox="0 0 375 75" fill="none" xmlns="http://www.w3.org/2000/svg">
<path d="M21.6831 52.2871V26.8184H37.7769V31.2715H27.0737V36.584H29.2144C31.6206 36.584 33.5894 36.9199 35.1206 37.584C36.6519 38.252 37.7847 39.1699 38.5269 40.334C39.2651 41.502 39.6362 42.834 39.6362 44.334C39.6362 46.8574 38.7964 48.8145 37.1206 50.209C35.4409 51.5957 32.769 52.2871 29.105 52.2871H21.6831ZM27.0737 47.8652H28.9019C30.5347 47.8652 31.8237 47.6074 32.7612 47.084C33.7065 46.5527 34.1831 45.6387 34.1831 44.334C34.1831 42.9824 33.6675 42.0918 32.6362 41.6621C31.6128 41.2363 30.2222 41.0215 28.4644 41.0215H27.0737V47.8652Z" fill="#1A0C36"/>
<path d="M62.5308 52.2871L60.6714 46.2246H51.4058L49.5464 52.2871H43.7339L52.7183 26.709H59.3276L68.3433 52.2871H62.5308ZM59.3901 41.6934L57.5464 35.7715C57.4214 35.3652 57.2651 34.8574 57.0776 34.2402C56.8901 33.6152 56.6948 32.9863 56.4995 32.3496C56.312 31.7051 56.1597 31.1426 56.0464 30.6621C55.9214 31.1426 55.7534 31.7363 55.5464 32.4434C55.3472 33.1426 55.1597 33.8105 54.9839 34.4434C54.8042 35.0684 54.6714 35.5137 54.5776 35.7715L52.7651 41.6934H59.3901Z" fill="#1A0C36"/>
<path d="M82.1865 26.8184C85.4678 26.8184 87.8623 27.5293 89.374 28.9434C90.8818 30.3613 91.6396 32.3027 91.6396 34.7715C91.6396 36.2715 91.3271 37.6621 90.7021 38.9434C90.085 40.2246 89.0615 41.2637 87.624 42.0527C86.1865 42.834 84.2334 43.2246 81.7646 43.2246H79.4365V52.2871H74.0459V26.8184H82.1865ZM81.9053 31.2402H79.4365V38.8027H81.2178C82.7373 38.8027 83.9443 38.502 84.8428 37.8965C85.7373 37.2949 86.1865 36.3105 86.1865 34.9434C86.1865 32.4746 84.7568 31.2402 81.9053 31.2402Z" fill="#1A0C36"/>
<path d="M113.616 52.2871H98.9443V26.8184H113.616V31.2402H104.335V36.834H112.976V41.2715H104.335V47.834H113.616V52.2871Z" fill="#1A0C36"/>
<path d="M142.292 52.2871H136.901V41.3027H126.808V52.2871H121.417V26.8184H126.808V36.8027H136.901V26.8184H142.292V52.2871Z" fill="#1A0C36"/>
<path d="M175.139 48.0059V59.709H169.936V52.2871H151.201V26.8184H156.592V47.7871H165.982V26.8184H171.357V48.0059H175.139Z" fill="#1A0C36"/>
<path d="M218.471 26.8184H223.331V39.1309C223.331 39.7246 223.315 40.3926 223.284 41.1309C223.26 41.8613 223.241 42.5801 223.221 43.2871C223.198 43.9863 223.174 44.5918 223.143 45.0996C223.12 45.6113 223.1 45.959 223.081 46.1465H223.19L234.956 26.8184H241.409V52.2871H236.596V40.0527C236.596 39.4082 236.604 38.7012 236.627 37.9277C236.659 37.1582 236.69 36.4199 236.721 35.709C236.76 34.9902 236.799 34.3652 236.831 33.834C236.87 33.2949 236.901 32.9395 236.924 32.7715H236.784L224.971 52.2871H218.471V26.8184Z" fill="#1A0C36"/>
<path d="M271.2 52.2871H265.81V41.3027H255.716V52.2871H250.325V26.8184H255.716V36.8027H265.81V26.8184H271.2V52.2871Z" fill="#1A0C36"/>
<path d="M295.703 52.2871L293.844 46.2246H284.578L282.719 52.2871H276.906L285.891 26.709H292.5L301.516 52.2871H295.703ZM292.562 41.6934L290.719 35.7715C290.594 35.3652 290.438 34.8574 290.25 34.2402C290.062 33.6152 289.867 32.9863 289.672 32.3496C289.484 31.7051 289.332 31.1426 289.219 30.6621C289.094 31.1426 288.926 31.7363 288.719 32.4434C288.52 33.1426 288.332 33.8105 288.156 34.4434C287.977 35.0684 287.844 35.5137 287.75 35.7715L285.938 41.6934H292.562Z" fill="#1A0C36"/>
<path d="M328.094 52.2871H322.704V41.3027H312.61V52.2871H307.219V26.8184H312.61V36.8027H322.704V26.8184H328.094V52.2871Z" fill="#1A0C36"/>
<path d="M347.815 30.959C345.753 30.959 344.175 31.7363 343.081 33.2871C341.987 34.8301 341.44 36.9434 341.44 39.6309C341.44 42.3418 341.944 44.4395 342.956 45.9277C343.964 47.4082 345.585 48.1465 347.815 48.1465C348.835 48.1465 349.866 48.0332 350.909 47.8027C351.96 47.5645 353.097 47.2246 354.315 46.7871V51.3184C353.19 51.7793 352.081 52.1113 350.987 52.3184C349.894 52.5371 348.667 52.6465 347.315 52.6465C344.679 52.6465 342.519 52.1074 340.831 51.0215C339.144 49.9395 337.894 48.4199 337.081 46.459C336.269 44.4902 335.862 42.2012 335.862 39.584C335.862 37.0215 336.323 34.7559 337.253 32.7871C338.179 30.8105 339.526 29.2637 341.3 28.1465C343.081 27.0215 345.253 26.459 347.815 26.459C349.073 26.459 350.339 26.623 351.612 26.9434C352.894 27.2676 354.112 27.7012 355.269 28.2402L353.534 32.6309C352.573 32.1855 351.612 31.7949 350.644 31.459C349.683 31.127 348.741 30.959 347.815 30.959Z" fill="#1A0C36"/>
<path d="M183.584 46.4658C181.182 45.3604 180.115 42.4854 181.221 40.0791L184.439 33.083C185.545 30.6768 188.416 29.6104 190.822 30.7158L196.947 33.5322L189.709 49.2783L183.584 46.4658ZM207.443 38.3564C209.85 39.4619 210.916 42.3369 209.81 44.7432L206.592 51.7393C205.486 54.1455 202.611 55.2119 200.209 54.1025L194.084 51.29L201.322 35.5439L207.443 38.3564ZM198.959 29.1572L192.834 26.3447C188.021 24.1338 182.275 26.2588 180.064 31.0713L176.85 38.0674C174.615 42.9229 176.721 48.6064 181.576 50.8369L187.697 53.6533L185.689 58.0283L190.064 60.0361L192.072 55.665L198.197 58.4775C203.01 60.6885 208.756 58.5635 210.967 53.751L214.182 46.751C216.373 41.9854 214.225 36.1768 209.455 33.9854L203.33 31.1689L205.342 26.7939L200.967 24.7822L198.959 29.1572Z" fill="#F4042E"/>
</svg>
